<svg width="172" height="136" fill="none" xmlns="http://www.w3.org/2000/svg"><path fill-rule="evenodd" clip-rule="evenodd" d="M51.417 7.833a5.583 5.583 0 0 0-5.584 5.584v8.25h13.834V7.833h-8.25Zm15.25 17.326V42.5h34.666V7.833H66.667V25.16ZM108.333 42.5V28.667h13.834V42.5h-13.834Zm0-20.833h13.834v-8.25c0-3.084-2.5-5.583-5.584-5.583h-8.25v13.833ZM129.167 46V13.417c0-6.95-5.634-12.583-12.584-12.583H51.417c-6.95 0-12.584 5.633-12.584 12.583v65.167c0 6.95 5.634 12.583 12.584 12.583h65.166c6.95 0 12.584-5.634 12.584-12.584V46Zm-69.5-17.333H45.833V42.5h13.834V28.667Zm62.5 34.666V49.5h-13.834v13.834h13.834Zm-13.834 7h13.834v8.25c0 3.084-2.5 5.584-5.584 5.584h-8.25V70.333Zm-7-3.5V49.5H66.667v34.667h34.666V66.833Zm-55.5 11.75v-8.25h13.834v13.834h-8.25a5.583 5.583 0 0 1-5.584-5.584Zm0-15.25h13.834V49.5H45.833v13.834Zm-15.747 62.222v1.828c0 1.195-.156 2.277-.469 3.246-.305.961-.75 1.785-1.336 2.473a5.835 5.835 0 0 1-2.086 1.582c-.812.367-1.726.551-2.742.551-.992 0-1.898-.184-2.719-.551a5.945 5.945 0 0 1-2.097-1.582c-.586-.688-1.04-1.512-1.36-2.473-.32-.969-.48-2.051-.48-3.246v-1.828c0-1.195.156-2.274.469-3.235.32-.968.773-1.796 1.359-2.484a5.944 5.944 0 0 1 2.098-1.582c.812-.367 1.715-.551 2.707-.551 1.015 0 1.93.184 2.742.551a5.944 5.944 0 0 1 2.098 1.582c.585.688 1.035 1.516 1.347 2.484.313.961.469 2.04.469 3.235Zm-1.43 1.828v-1.852c0-1.007-.117-1.914-.351-2.718-.227-.805-.567-1.493-1.02-2.063a4.46 4.46 0 0 0-1.64-1.312c-.649-.305-1.387-.457-2.215-.457-.805 0-1.528.152-2.168.457a4.589 4.589 0 0 0-1.64 1.312c-.446.57-.79 1.258-1.032 2.063-.235.804-.352 1.711-.352 2.718v1.852c0 1.016.117 1.93.352 2.742.242.805.59 1.496 1.043 2.074.453.571 1 1.008 1.64 1.313.649.305 1.375.457 2.18.457.836 0 1.574-.152 2.215-.457a4.488 4.488 0 0 0 1.629-1.313c.445-.578.781-1.269 1.008-2.074.234-.812.351-1.726.351-2.742Zm-15.527-9.445V135h-1.453l-9.809-14.578V135H.426v-17.062h1.441l9.832 14.578v-14.578h1.43Zm28.36 0H39.59V135h1.43v-7.453l-.12-7.563L47.242 135h1.102l6.364-15.067-.13 7.614V135h1.441v-17.062H54.11l-6.316 15.023-6.305-15.023Zm31.464 7.617v1.828c0 1.195-.156 2.277-.469 3.246-.304.961-.75 1.785-1.336 2.473a5.835 5.835 0 0 1-2.085 1.582c-.813.367-1.727.551-2.743.551-.992 0-1.898-.184-2.718-.551a5.944 5.944 0 0 1-2.098-1.582c-.586-.688-1.04-1.512-1.36-2.473-.32-.969-.48-2.051-.48-3.246v-1.828c0-1.195.156-2.274.469-3.235.32-.968.773-1.796 1.36-2.484a5.944 5.944 0 0 1 2.097-1.582c.812-.367 1.715-.551 2.707-.551 1.016 0 1.93.184 2.742.551a5.944 5.944 0 0 1 2.098 1.582c.586.688 1.035 1.516 1.347 2.484.313.961.47 2.04.47 3.235Zm-1.43 1.828v-1.852c0-1.007-.117-1.914-.351-2.718-.227-.805-.566-1.493-1.02-2.063a4.458 4.458 0 0 0-1.64-1.312c-.649-.305-1.387-.457-2.215-.457-.805 0-1.528.152-2.168.457a4.589 4.589 0 0 0-1.64 1.312c-.446.57-.79 1.258-1.032 2.063-.234.804-.352 1.711-.352 2.718v1.852c0 1.016.118 1.93.352 2.742.242.805.59 1.496 1.043 2.074.453.571 1 1.008 1.64 1.313.65.305 1.376.457 2.18.457.836 0 1.575-.152 2.215-.457a4.488 4.488 0 0 0 1.63-1.313c.444-.578.78-1.269 1.007-2.074.234-.812.351-1.726.351-2.742Zm15.528-9.445-5.38 14.941-.097.368-.101-.368-5.356-14.941h-1.57L80.887 135h1.382l6.352-17.062h-1.57Zm5.86 0V135h-1.442v-17.062h1.441ZM108.155 135v-1.23h-9.164v-6.95h7.969v-1.23h-7.969v-6.41h9.106v-1.242H97.551V135h10.605Zm12.715-4.195a3.18 3.18 0 0 0-.234-1.254 2.55 2.55 0 0 0-.774-.984c-.351-.297-.828-.571-1.429-.821-.594-.258-1.336-.511-2.227-.761a20.486 20.486 0 0 1-2.309-.797 8.067 8.067 0 0 1-1.769-.996 3.934 3.934 0 0 1-1.113-1.313c-.258-.508-.387-1.098-.387-1.769 0-.657.141-1.254.422-1.793a4.21 4.21 0 0 1 1.183-1.395 5.726 5.726 0 0 1 1.817-.902 7.999 7.999 0 0 1 2.308-.317c1.196 0 2.227.227 3.094.68.875.453 1.551 1.066 2.027 1.84.485.765.727 1.625.727 2.578h-1.441c0-.742-.176-1.402-.528-1.981-.343-.585-.843-1.042-1.5-1.371-.648-.336-1.441-.504-2.379-.504-.937 0-1.726.145-2.367.434-.633.281-1.113.66-1.441 1.137a2.716 2.716 0 0 0-.481 1.57c0 .406.078.781.235 1.125.156.336.41.652.761.949.36.289.832.563 1.418.821.586.25 1.309.488 2.168.714.907.25 1.711.528 2.414.833.704.304 1.297.656 1.782 1.054.484.391.851.848 1.101 1.371.25.524.375 1.133.375 1.828 0 .696-.148 1.321-.445 1.875a4.022 4.022 0 0 1-1.231 1.395c-.523.383-1.144.676-1.863.879a8.468 8.468 0 0 1-2.332.305 8.956 8.956 0 0 1-2.262-.293 7.01 7.01 0 0 1-2.062-.903 4.763 4.763 0 0 1-1.488-1.594c-.368-.648-.551-1.421-.551-2.32h1.43c0 .719.144 1.324.433 1.817.289.492.672.89 1.149 1.195a5.337 5.337 0 0 0 1.593.668 7.92 7.92 0 0 0 1.758.199c.899 0 1.676-.133 2.332-.398.664-.266 1.176-.637 1.535-1.114a2.71 2.71 0 0 0 .551-1.687Zm15.422-3.574-5.168-9.293h-1.711l6.164 10.629V135h1.442v-6.433l6.152-10.629h-1.664l-5.215 9.293Zm19.98 6.539V135h-10.605v-17.062h10.547v1.242h-9.106v6.41h7.969v1.23h-7.969v6.95h9.164Zm9.012 1.23v-15.82h5.848v-1.242H158.02v1.242h5.835V135h1.43Z" fill="#B7B7B7"/></svg>