<svg width="172" height="136" viewBox="0 0 172 136" fill="none" xmlns="http://www.w3.org/2000/svg">
<path fill-rule="evenodd" clip-rule="evenodd" d="M51.4167 7.8335C48.3331 7.8335 45.8333 10.3332 45.8333 13.4168V21.6668H59.6667V7.8335H51.4167ZM66.6667 25.1594L66.6667 25.1668L66.6667 25.1742V42.5002H101.333V25.1668V7.8335H66.6667V25.1594ZM108.333 42.5002V28.6668H122.167V42.5002H108.333ZM108.333 21.6668H122.167V13.4168C122.167 10.3332 119.667 7.8335 116.583 7.8335H108.333V21.6668ZM129.167 46.0002V25.1668V13.4168C129.167 6.46725 123.533 0.833501 116.583 0.833501H104.833H63.1667H51.4167C44.4671 0.833501 38.8333 6.46725 38.8333 13.4168V25.1668V46.0002V66.8335V78.5835C38.8333 85.5331 44.4671 91.1668 51.4167 91.1668H63.1667H104.833H116.583C123.533 91.1668 129.167 85.5331 129.167 78.5835V66.8335V46.0002ZM59.6667 28.6668H45.8333V42.5002H59.6667V28.6668ZM122.167 63.3335V49.5002H108.333V63.3335H122.167ZM108.333 70.3335H122.167V78.5835C122.167 81.6671 119.667 84.1668 116.583 84.1668H108.333V70.3335ZM101.333 66.8335V49.5002H66.6667V66.8261L66.6667 66.8335L66.6667 66.8409V84.1668H101.333V66.8335ZM45.8333 78.5835V70.3335H59.6667V84.1668H51.4167C48.3331 84.1668 45.8333 81.6671 45.8333 78.5835ZM45.8333 63.3335H59.6667V49.5002H45.8333V63.3335ZM30.0859 125.555V127.383C30.0859 128.578 29.9297 129.66 29.6172 130.629C29.3125 131.59 28.8672 132.414 28.2812 133.102C27.7031 133.789 27.0078 134.317 26.1953 134.684C25.3828 135.051 24.4688 135.235 23.4531 135.235C22.4609 135.235 21.5547 135.051 20.7344 134.684C19.9219 134.317 19.2227 133.789 18.6367 133.102C18.0508 132.414 17.5977 131.59 17.2773 130.629C16.957 129.66 16.7969 128.578 16.7969 127.383V125.555C16.7969 124.36 16.9531 123.281 17.2656 122.32C17.5859 121.352 18.0391 120.524 18.625 119.836C19.2109 119.149 19.9102 118.621 20.7227 118.254C21.5352 117.887 22.4375 117.703 23.4297 117.703C24.4453 117.703 25.3594 117.887 26.1719 118.254C26.9844 118.621 27.6836 119.149 28.2695 119.836C28.8555 120.524 29.3047 121.352 29.6172 122.32C29.9297 123.281 30.0859 124.36 30.0859 125.555ZM28.6562 127.383V125.531C28.6562 124.524 28.5391 123.617 28.3047 122.813C28.0781 122.008 27.7383 121.32 27.2852 120.75C26.8398 120.18 26.293 119.742 25.6445 119.438C24.9961 119.133 24.2578 118.981 23.4297 118.981C22.625 118.981 21.9023 119.133 21.2617 119.438C20.6211 119.742 20.0742 120.18 19.6211 120.75C19.1758 121.32 18.832 122.008 18.5898 122.813C18.3555 123.617 18.2383 124.524 18.2383 125.531V127.383C18.2383 128.399 18.3555 129.313 18.5898 130.125C18.832 130.93 19.1797 131.621 19.6328 132.199C20.0859 132.77 20.6328 133.207 21.2734 133.512C21.9219 133.817 22.6484 133.969 23.4531 133.969C24.2891 133.969 25.0273 133.817 25.668 133.512C26.3086 133.207 26.8516 132.77 27.2969 132.199C27.7422 131.621 28.0781 130.93 28.3047 130.125C28.5391 129.313 28.6562 128.399 28.6562 127.383ZM13.1289 117.938V135H11.6758L1.86719 120.422V135H0.425781V117.938H1.86719L11.6992 132.516V117.938H13.1289ZM41.4883 117.938H40.8672H40.0352H39.5898V135H41.0195V127.547L40.8996 119.984L47.2422 135H48.3438L54.7081 119.933L54.5781 127.547V135H56.0195V117.938H55.5508H54.7422H54.1094L47.793 132.961L41.4883 117.938ZM72.9531 125.555V127.383C72.9531 128.578 72.7969 129.66 72.4844 130.629C72.1797 131.59 71.7344 132.414 71.1484 133.102C70.5703 133.789 69.875 134.317 69.0625 134.684C68.25 135.051 67.3359 135.235 66.3203 135.235C65.3281 135.235 64.4219 135.051 63.6016 134.684C62.7891 134.317 62.0898 133.789 61.5039 133.102C60.918 132.414 60.4648 131.59 60.1445 130.629C59.8242 129.66 59.6641 128.578 59.6641 127.383V125.555C59.6641 124.36 59.8203 123.281 60.1328 122.32C60.4531 121.352 60.9062 120.524 61.4922 119.836C62.0781 119.149 62.7773 118.621 63.5898 118.254C64.4023 117.887 65.3047 117.703 66.2969 117.703C67.3125 117.703 68.2266 117.887 69.0391 118.254C69.8516 118.621 70.5508 119.149 71.1367 119.836C71.7227 120.524 72.1719 121.352 72.4844 122.32C72.7969 123.281 72.9531 124.36 72.9531 125.555ZM71.5234 127.383V125.531C71.5234 124.524 71.4062 123.617 71.1719 122.813C70.9453 122.008 70.6055 121.32 70.1523 120.75C69.707 120.18 69.1602 119.742 68.5117 119.438C67.8633 119.133 67.125 118.981 66.2969 118.981C65.4922 118.981 64.7695 119.133 64.1289 119.438C63.4883 119.742 62.9414 120.18 62.4883 120.75C62.043 121.32 61.6992 122.008 61.457 122.813C61.2227 123.617 61.1055 124.524 61.1055 125.531V127.383C61.1055 128.399 61.2227 129.313 61.457 130.125C61.6992 130.93 62.0469 131.621 62.5 132.199C62.9531 132.77 63.5 133.207 64.1406 133.512C64.7891 133.817 65.5156 133.969 66.3203 133.969C67.1562 133.969 67.8945 133.817 68.5352 133.512C69.1758 133.207 69.7188 132.77 70.1641 132.199C70.6094 131.621 70.9453 130.93 71.1719 130.125C71.4062 129.313 71.5234 128.399 71.5234 127.383ZM87.0508 117.938L81.6719 132.879L81.5743 133.247L81.4727 132.879L76.1172 117.938H74.5469L80.8867 135H81.1094H82.0586H82.2695L88.6211 117.938H87.0508ZM92.9102 117.938V135H91.4688V117.938H92.9102ZM108.156 135V133.77H98.9922V126.82H106.961V125.59H98.9922V119.18H108.098V117.938H98.9922H98.5586H97.5508V135H98.5586H98.9922H108.156ZM120.871 130.805C120.871 130.336 120.793 129.918 120.637 129.551C120.48 129.184 120.223 128.856 119.863 128.567C119.512 128.27 119.035 127.996 118.434 127.746C117.84 127.488 117.098 127.235 116.207 126.985C115.355 126.742 114.586 126.477 113.898 126.188C113.211 125.899 112.621 125.567 112.129 125.192C111.645 124.817 111.273 124.379 111.016 123.879C110.758 123.371 110.629 122.781 110.629 122.11C110.629 121.453 110.77 120.856 111.051 120.317C111.332 119.778 111.727 119.313 112.234 118.922C112.75 118.531 113.355 118.231 114.051 118.02C114.754 117.809 115.523 117.703 116.359 117.703C117.555 117.703 118.586 117.93 119.453 118.383C120.328 118.836 121.004 119.449 121.48 120.223C121.965 120.988 122.207 121.848 122.207 122.801H120.766C120.766 122.059 120.59 121.399 120.238 120.82C119.895 120.235 119.395 119.778 118.738 119.449C118.09 119.113 117.297 118.945 116.359 118.945C115.422 118.945 114.633 119.09 113.992 119.379C113.359 119.66 112.879 120.039 112.551 120.516C112.23 120.985 112.07 121.508 112.07 122.086C112.07 122.492 112.148 122.867 112.305 123.211C112.461 123.547 112.715 123.863 113.066 124.16C113.426 124.449 113.898 124.723 114.484 124.981C115.07 125.231 115.793 125.469 116.652 125.695C117.559 125.945 118.363 126.223 119.066 126.528C119.77 126.832 120.363 127.184 120.848 127.582C121.332 127.973 121.699 128.43 121.949 128.953C122.199 129.477 122.324 130.086 122.324 130.781C122.324 131.477 122.176 132.102 121.879 132.656C121.59 133.203 121.18 133.668 120.648 134.051C120.125 134.434 119.504 134.727 118.785 134.93C118.074 135.133 117.297 135.235 116.453 135.235C115.695 135.235 114.941 135.137 114.191 134.942C113.441 134.746 112.754 134.445 112.129 134.039C111.512 133.625 111.016 133.094 110.641 132.445C110.273 131.797 110.09 131.024 110.09 130.125H111.52C111.52 130.844 111.664 131.449 111.953 131.942C112.242 132.434 112.625 132.832 113.102 133.137C113.586 133.442 114.117 133.664 114.695 133.805C115.281 133.938 115.867 134.004 116.453 134.004C117.352 134.004 118.129 133.871 118.785 133.606C119.449 133.34 119.961 132.969 120.32 132.492C120.688 132.008 120.871 131.445 120.871 130.805ZM136.293 127.231L131.125 117.938H129.414L135.578 128.567V135H137.02V128.567L143.172 117.938H141.508L136.293 127.231ZM156.273 133.77V135H147.109H146.676H145.668V117.938H146.676H147.109H156.215V119.18H147.109V125.59H155.078V126.82H147.109V133.77H156.273ZM165.285 135V119.18H171.133V117.938H165.285H163.855H158.02V119.18H163.855V135H165.285Z" fill="#B7B7B7"/>
</svg>
